HIERARCHY
ROOT joint_Root
{
	OFFSET 0.0 0.0 0.0
	CHANNELS 6 Xposition Yposition Zposition Zrotation Xrotation Yrotation 
	JOINT Hips
	{
		OFFSET -0.726466 93.3139 -2.00062
		CHANNELS 6 Xposition Yposition Zposition Zrotation Xrotation Yrotation 
		JOINT Spine
		{
			OFFSET 15.7357 0.0 0.0
			CHANNELS 6 Xposition Yposition Zposition Zrotation Xrotation Yrotation 
			JOINT Chest
			{
				OFFSET 8.98455 -0.406207 0.0
				CHANNELS 6 Xposition Yposition Zposition Zrotation Xrotation Yrotation 
				JOINT Neck
				{
					OFFSET 16.3773 0.0 0.0
					CHANNELS 6 Xposition Yposition Zposition Zrotation Xrotation Yrotation 
					JOINT Head
					{
						OFFSET 6.45672 0.0 0.0
						CHANNELS 6 Xposition Yposition Zposition Zrotation Xrotation Yrotation 
						End Site
						{
							OFFSET 0.0 0.0 0.0
						}
					}
				}
				JOINT Shoulder_L
				{
					OFFSET 12.9942 -0.242716 4.98039
					CHANNELS 6 Xposition Yposition Zposition Zrotation Xrotation Yrotation 
					JOINT UpperArm_L
					{
						OFFSET 5.34809 0.0 0.0
						CHANNELS 6 Xposition Yposition Zposition Zrotation Xrotation Yrotation 
						JOINT LowerArm_L
						{
							OFFSET 24.3286 1.87007e-05 0.0
							CHANNELS 6 Xposition Yposition Zposition Zrotation Xrotation Yrotation 
							JOINT Hand_L
							{
								OFFSET 22.2916 0.0 0.0
								CHANNELS 6 Xposition Yposition Zposition Zrotation Xrotation Yrotation 
								End Site
								{
									OFFSET 0.0 0.0 0.0
								}
							}
						}
					}
				}
				JOINT Shoulder_R
				{
					OFFSET 12.9945 -0.242716 -4.98039
					CHANNELS 6 Xposition Yposition Zposition Zrotation Xrotation Yrotation 
					JOINT UpperArm_R
					{
						OFFSET -5.34813 0.0 0.0
						CHANNELS 6 Xposition Yposition Zposition Zrotation Xrotation Yrotation 
						JOINT LowerArm_R
						{
							OFFSET -24.3289 0.000322201 0.0
							CHANNELS 6 Xposition Yposition Zposition Zrotation Xrotation Yrotation 
							JOINT Hand_R
							{
								OFFSET -22.2915 -0.000108084 0.0
								CHANNELS 6 Xposition Yposition Zposition Zrotation Xrotation Yrotation 
								End Site
								{
									OFFSET 0.0 0.0 0.0
								}
							}
						}
					}
				}
			}
		}
		JOINT UpperLeg_L
		{
			OFFSET -2.19248 -6.46944 0.0
			CHANNELS 6 Xposition Yposition Zposition Zrotation Xrotation Yrotation 
			JOINT LowerLeg_L
			{
				OFFSET 39.0811 0.0 -1.23785e-05
				CHANNELS 6 Xposition Yposition Zposition Zrotation Xrotation Yrotation 
				JOINT Foot_L
				{
					OFFSET 40.9854 0.0 -1.26872e-05
					CHANNELS 6 Xposition Yposition Zposition Zrotation Xrotation Yrotation 
					JOINT Toes_L
					{
						OFFSET 11.7543 0.0 0.0
						CHANNELS 6 Xposition Yposition Zposition Zrotation Xrotation Yrotation 
						End Site
						{
							OFFSET 0.0 0.0 0.0
						}
					}
				}
			}
		}
		JOINT UpperLeg_R
		{
			OFFSET -2.19251 6.46944 0.0
			CHANNELS 6 Xposition Yposition Zposition Zrotation Xrotation Yrotation 
			JOINT LowerLeg_R
			{
				OFFSET -39.0811 -0.00228153 -0.0401928
				CHANNELS 6 Xposition Yposition Zposition Zrotation Xrotation Yrotation 
				JOINT Foot_R
				{
					OFFSET -40.9854 0.0 0.0
					CHANNELS 6 Xposition Yposition Zposition Zrotation Xrotation Yrotation 
					JOINT Toes_R
					{
						OFFSET -11.7543 0.0 0.0
						CHANNELS 6 Xposition Yposition Zposition Zrotation Xrotation Yrotation 
						End Site
						{
							OFFSET 0.0 0.0 0.0
						}
					}
				}
			}
		}
	}
}
MOTION
Frames:	6
Frame Time:	0.0333333
0.000000 0.000000 0.000000 0.000000 0.000000 -0.000000 5.459990 91.907800 -69.177900 89.030200 -1.593350 -6.565430 15.735700 0.000005 -0.000001 56.892100 82.467300 -54.870800 8.984550 -0.406207 -0.000000 5.044490 -8.260650 4.408000 16.377300 -0.000001 -0.000001 0.021137 -0.389601 -0.736192 6.456720 -0.000001 -0.000000 0.008644 5.624130 -1.666310 12.994200 -0.242716 4.980390 -87.416200 -8.107260 -72.255900 5.348090 -0.000007 -0.000001 -72.377100 38.043600 -13.346500 24.328600 0.000019 0.000005 1.651580 -0.542123 -108.160000 22.291600 -0.000001 0.000005 5.964920 5.617230 -12.428300 12.994500 -0.242716 -4.980390 90.674500 -1.476780 -65.452200 -5.348130 -0.000001 -0.000004 -72.894100 39.344800 16.199000 -24.328900 0.000322 -0.000009 -1.357570 0.211514 -98.848700 -22.291500 -0.000108 -0.000004 6.987370 5.572020 -9.790590 -2.192480 -6.469440 -0.000000 179.259000 -1.053720 10.125800 39.081100 -0.000007 -0.000012 -0.117406 0.074967 57.442400 40.985400 -0.000006 -0.000013 2.543680 -8.990300 -39.314200 11.754300 -0.000000 0.000003 -0.006040 -0.071209 -19.474900 -2.192510 6.469440 -0.000001 -171.898000 8.309070 147.287000 -39.081100 -0.002282 -0.040193 -0.041434 0.098245 24.487400 -40.985400 0.000008 0.000006 -3.185770 1.743690 -70.127000 -11.754300 -0.000006 -0.000006 -0.026619 -0.201528 -24.821600
0.000000 0.000000 0.000000 0.000000 0.000000 -0.000000 5.424990 89.713600 -57.880700 86.971900 -3.755520 -3.763200 15.735700 0.000005 -0.000001 68.339700 81.913500 -65.627400 8.984550 -0.406207 -0.000000 7.442750 -5.954910 5.810450 16.377300 -0.000001 -0.000001 -0.456102 0.049378 -0.940067 6.456720 -0.000001 -0.000000 -1.931380 4.962930 -2.173450 12.994200 -0.242716 4.980390 -87.998100 -6.007240 -71.529100 5.348090 -0.000007 -0.000001 -72.490300 37.017500 -9.592140 24.328600 0.000019 0.000005 1.793230 -0.262974 -98.342000 22.291600 -0.000001 0.000005 6.739450 5.628700 -13.239600 12.994500 -0.242716 -4.980390 89.822700 0.416499 -66.900000 -5.348130 -0.000001 -0.000004 -67.974800 38.324600 6.965150 -24.328900 0.000322 -0.000009 -2.405500 0.259927 -96.162800 -22.291500 -0.000108 -0.000004 8.195990 5.594630 -11.014700 -2.192480 -6.469440 -0.000000 -178.046000 -5.032960 4.323690 39.081100 -0.000007 -0.000012 -0.132158 0.021198 80.890900 40.985400 -0.000006 -0.000013 2.386800 -8.769190 -39.878300 11.754300 -0.000000 0.000003 -0.006220 -0.072829 -19.541000 -2.192510 6.469440 -0.000001 -170.170000 7.182680 149.391000 -39.081100 -0.002282 -0.040193 -0.029183 0.053228 31.392800 -40.985400 0.000008 0.000006 -0.805167 3.277060 -67.780900 -11.754300 -0.000006 -0.000006 -0.032862 -0.230295 -26.015000
0.000000 0.000000 0.000000 0.000000 0.000000 -0.000000 4.808590 86.588000 -47.226300 84.491600 -4.952410 -2.165150 15.735700 0.000005 -0.000001 77.921300 81.722800 -74.258400 8.984550 -0.406207 -0.000000 8.553790 -3.422200 7.577000 16.377300 -0.000001 -0.000001 -0.654155 0.484558 -1.903880 6.456720 -0.000001 -0.000000 -2.948490 3.492430 -2.075260 12.994200 -0.242716 4.980390 -88.641600 -3.778960 -70.210700 5.348090 -0.000007 -0.000001 -70.610800 37.307700 -6.233110 24.328600 0.000019 0.000005 1.148830 0.085370 -85.863400 22.291600 -0.000001 0.000005 5.789710 5.634790 -13.708400 12.994500 -0.242716 -4.980390 88.657500 3.468140 -68.820900 -5.348130 -0.000001 -0.000004 -60.712000 36.536700 -3.419860 -24.328900 0.000322 -0.000009 -4.405310 0.387822 -95.016400 -22.291500 -0.000108 -0.000004 10.898100 5.605170 -11.662000 -2.192480 -6.469440 -0.000000 -173.828000 -8.298060 -5.932680 39.081100 -0.000007 -0.000012 -0.198376 -0.050097 104.176000 40.985400 -0.000006 -0.000013 5.319460 -10.511600 -39.992500 11.754300 -0.000000 0.000003 -0.006470 -0.075059 -19.632000 -2.192510 6.469440 -0.000001 -166.862000 5.691550 149.995000 -39.081100 -0.002282 -0.040193 0.015431 -0.012292 44.703900 -40.985400 0.000008 0.000006 12.047800 -1.604380 -67.406200 -11.754300 -0.000006 -0.000006 -0.014833 -0.136764 -22.152800
0.000000 0.000000 0.000000 0.000000 0.000000 -0.000000 4.423500 83.832700 -37.194500 85.058500 -6.810660 -0.900450 15.735700 0.000005 -0.000001 88.864100 81.460600 -85.255100 8.984550 -0.406207 -0.000000 9.328820 -0.287176 7.235700 16.377300 -0.000001 -0.000001 -1.947070 0.411404 -2.043190 6.456720 -0.000001 -0.000000 -2.761560 2.446610 -4.517320 12.994200 -0.242716 4.980390 -89.117600 -2.373790 -69.600700 5.348090 -0.000007 -0.000001 -68.550000 36.504400 -0.973135 24.328600 0.000019 0.000005 11.154900 2.436450 -77.835900 22.291600 -0.000001 0.000005 3.035040 5.648240 -14.856300 12.994500 -0.242716 -4.980390 87.853900 5.876360 -69.895800 -5.348130 -0.000001 -0.000004 -52.682200 34.142100 -17.015700 -24.328900 0.000322 -0.000009 -5.192820 0.759393 -98.297700 -22.291500 -0.000108 -0.000004 12.478600 5.594500 -11.018700 -2.192480 -6.469440 -0.000000 -174.858000 -10.590300 -20.427600 39.081100 -0.000007 -0.000012 -0.449453 -0.274658 121.430000 40.985400 -0.000006 -0.000013 10.990500 -10.107300 -36.693700 11.754300 -0.000000 0.000003 -0.005175 -0.063157 -19.146600 -2.192510 6.469440 -0.000001 -168.049000 2.192290 153.044000 -39.081100 -0.002282 -0.040193 0.211972 -0.139656 56.217400 -40.985400 0.000008 0.000006 12.349900 -6.391870 -77.840600 -11.754300 -0.000006 -0.000006 -0.005352 -0.064828 -19.211000
0.000000 0.000000 0.000000 0.000000 0.000000 -0.000000 4.412840 83.055000 -26.901800 86.200300 -7.637480 -1.252320 15.735700 0.000005 -0.000001 95.592200 81.455700 -92.280700 8.984550 -0.406207 -0.000000 9.203470 1.697840 6.480970 16.377300 -0.000001 -0.000001 -2.077230 0.719863 -1.371160 6.456720 -0.000001 -0.000000 -3.972550 1.739980 -6.585180 12.994200 -0.242716 4.980390 -88.997000 -2.551780 -68.535400 5.348090 -0.000007 -0.000001 -67.142500 37.133400 6.998350 24.328600 0.000019 0.000005 13.210500 2.494100 -79.504800 22.291600 -0.000001 0.000005 -0.036125 5.644660 -14.515000 12.994500 -0.242716 -4.980390 88.209000 5.176460 -70.885900 -5.348130 -0.000001 -0.000004 -49.004000 31.160400 -31.114700 -24.328900 0.000322 -0.000009 -3.738090 0.923503 -103.864000 -22.291500 -0.000108 -0.000004 11.367500 5.603000 -11.522700 -2.192480 -6.469440 -0.000000 -178.777000 -9.353910 -34.927600 39.081100 -0.000007 -0.000012 -0.757020 -0.589406 127.903000 40.985400 -0.000006 -0.000013 14.376200 -9.230820 -42.032400 11.754300 -0.000000 0.000003 -0.006062 -0.071409 -19.483100 -2.192510 6.469440 -0.000001 -171.409000 7.193470 160.455000 -39.081100 -0.002282 -0.040193 0.232306 -0.149245 56.917000 -40.985400 0.000008 0.000006 13.302000 -2.247330 -85.647900 -11.754300 -0.000006 -0.000006 -0.695891 -0.837156 -19.719800
0.000000 0.000000 0.000000 0.000000 0.000000 -0.000000 4.907560 84.375200 -15.356000 90.188300 -8.895700 -2.883870 15.735700 0.000005 -0.000001 106.521000 82.137100 -104.729000 8.984550 -0.406207 -0.000000 7.259750 4.447660 3.299450 16.377300 -0.000001 -0.000001 -1.693360 0.301926 -0.708923 6.456720 -0.000001 -0.000000 -3.421050 -0.819598 -5.491440 12.994200 -0.242716 4.980390 -88.254500 -4.202380 -67.420500 5.348090 -0.000007 -0.000001 -66.606400 40.164800 13.564000 24.328600 0.000019 0.000005 7.413190 0.738715 -84.345000 22.291600 -0.000001 0.000005 -1.223660 5.633640 -13.608700 12.994500 -0.242716 -4.980390 88.866100 3.341320 -71.243400 -5.348130 -0.000001 -0.000004 -48.925400 28.940700 -38.623000 -24.328900 0.000322 -0.000009 -3.087060 1.193850 -111.117000 -22.291500 -0.000108 -0.000004 10.767800 5.595570 -11.081300 -2.192480 -6.469440 -0.000000 174.811000 -6.551480 -44.141000 39.081100 -0.000007 -0.000012 -0.616243 -0.380895 121.720000 40.985400 -0.000006 -0.000013 12.055800 -9.884050 -49.993900 11.754300 -0.000000 0.000003 -0.007286 -0.082110 -19.919700 -2.192510 6.469440 -0.000001 -178.485000 7.195480 170.245000 -39.081100 -0.002282 -0.040193 0.159616 -0.134741 49.248600 -40.985400 0.000008 0.000006 11.948400 0.684489 -84.411300 -11.754300 -0.000006 -0.000006 -2.638740 -2.730160 -24.678800
